<?xml version="1.0" standalone="no"?>
<!DOCTYPE svg PUBLIC "-//W3C//DTD SVG 20010904//EN"
 "http://www.w3.org/TR/2001/REC-SVG-20010904/DTD/svg10.dtd">
<svg version="1.0" xmlns="http://www.w3.org/2000/svg"
 width="16.000000pt" height="16.000000pt" viewBox="0 0 16.000000 16.000000"
 preserveAspectRatio="xMidYMid meet">
<metadata>
Created by potrace 1.11, written by Peter Selinger 2001-2013
</metadata>
<g transform="translate(0.000000,16.000000) scale(0.022857,-0.022857)"
fill="#000000" stroke="none">
<path d="M59 539 c-16 -14 -20 -28 -18 -73 1 -32 7 -56 13 -56 6 0 4 -5 -4
-10 -13 -8 -12 -10 3 -10 14 0 17 -5 12 -20 -4 -14 -1 -22 10 -26 13 -6 14 -8
3 -15 -10 -7 -9 -9 4 -9 9 0 20 -5 24 -12 5 -7 3 -8 -6 -3 -9 5 -11 4 -6 -3 4
-7 16 -12 27 -12 11 0 17 -4 14 -10 -4 -6 7 -10 25 -10 28 0 30 -2 20 -20 -6
-11 -8 -20 -5 -20 3 0 1 -10 -6 -21 -7 -13 -7 -19 -1 -15 6 3 12 -4 14 -16 3
-20 9 -23 61 -26 35 -2 57 1 57 8 0 5 6 9 13 8 6 -2 11 5 11 14 -1 10 4 14 12
11 8 -3 14 -9 14 -14 0 -5 9 -9 20 -9 11 0 20 -4 20 -10 0 -15 106 -12 117 2
13 17 23 58 15 58 -4 0 -7 14 -6 32 1 21 6 32 17 34 10 1 14 -2 11 -8 -7 -10
33 10 52 27 6 6 15 21 18 33 4 12 11 22 15 22 5 0 8 10 7 23 0 12 4 21 9 20
15 -2 13 119 -3 125 -6 2 -10 8 -6 13 3 5 -1 9 -8 10 -7 0 -24 2 -36 3 -13 2
-26 -4 -29 -11 -5 -12 -7 -12 -14 -1 -7 10 -9 10 -9 1 0 -7 -7 -13 -16 -13 -8
0 -12 -5 -9 -10 4 -6 3 -10 -2 -9 -23 4 -43 -2 -43 -13 0 -7 -17 -22 -38 -33
-22 -13 -36 -27 -36 -38 1 -9 -2 -15 -6 -12 -12 8 -41 -6 -34 -16 3 -5 -2 -9
-11 -9 -9 0 -13 5 -10 10 3 6 -1 10 -10 10 -9 0 -13 5 -10 10 6 9 -8 14 -28
11 -5 -1 -7 4 -5 11 3 7 -9 20 -26 29 -17 10 -30 21 -29 26 1 5 -7 10 -19 10
-11 1 -28 12 -39 24 -10 12 -19 17 -19 11 0 -7 -5 -12 -11 -12 -5 0 -8 4 -5 9
11 18 -54 18 -75 0z"/>
</g>
</svg>
